<svg width="32" height="32" viewBox="0 0 32 32" fill="none" xmlns="http://www.w3.org/2000/svg">
<path d="M4 7.55556C4 6.8148 4.27028 6.20369 4.81081 5.72222C5.35134 5.24073 6.05406 5 6.91892 5C7.76835 5 8.45559 5.23702 8.98069 5.71111C9.52123 6.2 9.79151 6.83702 9.79151 7.62222C9.79151 8.33333 9.52897 8.92591 9.00386 9.4C8.46333 9.88889 7.7529 10.1333 6.87259 10.1333H6.84942C5.99999 10.1333 5.31275 9.88889 4.78764 9.4C4.26254 8.91111 4 8.29629 4 7.55556ZM4.30116 27V12.1556H9.44402V27H4.30116ZM12.2934 27H17.4363V18.7111C17.4363 18.1926 17.4981 17.7926 17.6216 17.5111C17.8378 17.0074 18.166 16.5815 18.6062 16.2333C19.0463 15.8852 19.5984 15.7111 20.2625 15.7111C21.9923 15.7111 22.8571 16.8296 22.8571 19.0667V27H28V18.4889C28 16.2963 27.4595 14.6333 26.3784 13.5C25.2973 12.3667 23.8687 11.8 22.0927 11.8C20.1004 11.8 18.5483 12.6222 17.4363 14.2667V14.3111H17.4131L17.4363 14.2667V12.1556H12.2934C12.3243 12.6296 12.3398 14.1037 12.3398 16.5778C12.3398 19.0518 12.3243 22.5259 12.2934 27Z" fill="#00241B"/>
</svg>
